<svg xmlns="http://www.w3.org/2000/svg" viewBox="0 0 500 500"><g id="freepik--Shadow--inject-57"><ellipse id="freepik--path--inject-57" cx="250" cy="416.24" rx="193.89" ry="11.32" style="fill:#f5f5f5"></ellipse></g><g id="freepik--Character--inject-57"><polygon points="246.37 406.96 255.22 407.04 259.94 386.53 251.08 386.45 246.37 406.96" style="fill:#ff8b7b"></polygon><path d="M255.44,406l-9.68-.08a.83.83,0,0,0-.8.6l-2.34,7.85a1.2,1.2,0,0,0,1.16,1.59c3.5,0,8.56-.19,13-.15,5.13.05,6.19.36,12.21.42,3.63,0,4.92-3.64,3.42-4-6.82-1.58-9.12-1.79-14.83-5.54A3.88,3.88,0,0,0,255.44,406Z" style="fill:#263238"></path><polygon points="259.93 386.54 257.51 397.11 248.65 397.03 251.07 386.46 259.93 386.54" style="opacity:0.2"></polygon><path d="M259.1,407.59a14.43,14.43,0,0,1-2.83-.34.21.21,0,0,1-.17-.18.21.21,0,0,1,.12-.21c.42-.21,4.14-2,5.16-1.36a.64.64,0,0,1,.3.56,1.27,1.27,0,0,1-.47,1A3.5,3.5,0,0,1,259.1,407.59ZM257,407c1.92.34,3.38.27,4-.21a.82.82,0,0,0,.32-.69.21.21,0,0,0-.1-.2C260.61,405.52,258.51,406.27,257,407Z" style="fill:#CFD8DC"></path><path d="M256.31,407.26a.21.21,0,0,1-.13-.05.22.22,0,0,1-.08-.2c0-.16.7-4,2.81-3.74.56.07.71.35.75.57.14,1-2.13,2.92-3.27,3.4Zm2.42-3.58c-1.27,0-1.91,2.07-2.13,3,1.17-.66,2.73-2.16,2.64-2.76,0,0,0-.17-.38-.21Z" style="fill:#CFD8DC"></path><path d="M300,164.63c.13,5.39.32,11,.58,16.46.12,2.74.27,5.48.46,8.2s.41,5.43.71,8.1q.19,2,.48,4l.13,1c0,.12,0,0,0,.06h0s0,.11,0,.29a4.73,4.73,0,0,0,1.45,1.57,18.81,18.81,0,0,0,2.76,1.73c4.23,2.2,9.6,3.81,14.7,5.25l-.54,6.77a55.18,55.18,0,0,1-9-.2c-1.51-.14-3-.36-4.54-.65a36.94,36.94,0,0,1-4.63-1.17,25.39,25.39,0,0,1-4.79-2,17.38,17.38,0,0,1-4.92-3.92,12.51,12.51,0,0,1-2-3.37c-.14-.32-.25-.67-.36-1l-.14-.52-.12-.45-.23-1.1c-.34-1.46-.63-2.92-.89-4.37-1.05-5.81-1.69-11.55-2.16-17.3-.2-2.87-.41-5.74-.49-8.61s-.19-5.71-.14-8.68Z" style="fill:#ff8b7b"></path><path d="M283.11,165.31c-1.26,10.05,1.06,24.89,1.06,24.89s7,1,12.45-.44,6.6-2.51,6.6-2.51a58.58,58.58,0,0,0,.16-20.93c-2.19-11.35-11.31-15.66-17.62-8.73C284.35,159.16,283.53,162,283.11,165.31Z" style="fill:#CFD8DC"></path><path d="M284.15,170.16a52.43,52.43,0,0,0-1.36,5.17,141.88,141.88,0,0,0,1.38,14.86,39.08,39.08,0,0,0,11.6-.22c.16-1.92.26-4,.25-6.07C296,174.28,290.37,168.56,284.15,170.16Z" style="opacity:0.2"></path><path d="M318.18,210.77l6.93-.45-.34,8.78a11.11,11.11,0,0,1-8.6-2.7Z" style="fill:#ff8b7b"></path><path d="M332.17,214.38,330.88,218a2.27,2.27,0,0,1-2.41,1.51l-3.7-.42.34-8.78,5.35,1.05A2.3,2.3,0,0,1,332.17,214.38Z" style="fill:#ff8b7b"></path><rect x="322.61" y="207.44" width="4.94" height="12.67" rx="1.18" transform="translate(145.16 -131.2) rotate(29.13)" style="fill:#263238"></rect><rect x="318.67" y="217.21" width="5.98" height="5.4" rx="0.64" transform="translate(147.71 -128.76) rotate(29.13)" style="fill:#263238"></rect><path d="M334.76,211a14.57,14.57,0,0,1-7.11-1.85,15.53,15.53,0,1,1,20.68-6.24h0A15.63,15.63,0,0,1,334.76,211Zm.88-28.68a13.51,13.51,0,0,0-11.71,7,12.91,12.91,0,1,0,22.54,12.56h0a13.18,13.18,0,0,0-4.75-18A12.44,12.44,0,0,0,335.64,182.34Z" style="fill:#263238"></path><path d="M281.43,230.29s4.54,50,3.22,77.35C283.28,336,263.16,392,263.16,392l-16-.34s11-61.63,10.7-89.85c-.3-30.78-3.13-76.87-3.13-76.87Z" style="fill:#263238"></path><path d="M260.52,237.93c-1.83-2.16-3.47-.1-4.85,3.91.57,10.78,1.26,25.34,1.71,39.45C265.19,269.41,266.41,244.92,260.52,237.93Z" style="opacity:0.2"></path><polygon points="245.19 392.33 264.01 392.71 266.02 386.46 246.37 386.41 245.19 392.33" style="fill:#CFD8DC"></polygon><polygon points="245.19 392.33 264.01 392.71 266.02 386.46 246.37 386.41 245.19 392.33" style="fill:#fff;opacity:0.4"></polygon><polygon points="180.07 372.12 186.77 377.92 201.9 363.86 195.19 358.06 180.07 372.12" style="fill:#ff8b7b"></polygon><path d="M187.36,378.2,182.3,370a.85.85,0,0,0-.93-.37l-7.9,2.18a1.2,1.2,0,0,0-.74,1.82c1.88,2.95,4.7,7.16,7,10.91,2.68,4.37,2.66,4.3,5.81,9.43,1.9,3.11,5.69,2.25,5.19.8-2.28-6.62-3-7.54-2.86-14.37A3.84,3.84,0,0,0,187.36,378.2Z" style="fill:#263238"></path><polygon points="201.89 363.86 194.1 371.11 187.39 365.31 195.19 358.06 201.89 363.86" style="opacity:0.2"></polygon><path d="M188,382.14a14.76,14.76,0,0,1-1.22-2.58.22.22,0,0,1,.07-.24.21.21,0,0,1,.24,0c.4.25,3.89,2.47,3.89,3.67a.63.63,0,0,1-.32.55,1.26,1.26,0,0,1-1.11.14A3.41,3.41,0,0,1,188,382.14Zm-.59-2.13c.73,1.8,1.56,3,2.27,3.25a.81.81,0,0,0,.75-.1c.11-.07.13-.14.13-.19C190.52,382.32,188.76,380.94,187.37,380Z" style="fill:#CFD8DC"></path><path d="M186.76,379.59a.28.28,0,0,1,0-.13.21.21,0,0,1,.13-.17c.15-.06,3.74-1.51,4.66.4.24.51.08.79-.09.94-.77.65-3.6-.27-4.61-1Zm4.31.17c-.67-1.08-2.76-.52-3.65-.23,1.18.64,3.28,1.16,3.74.78,0,0,.13-.12,0-.44A.41.41,0,0,0,191.07,379.76Z" style="fill:#CFD8DC"></path><path d="M265.21,227s-8.43,46.84-14.47,73.51c-6.27,27.74-49.84,69.6-49.84,69.6l-12-10.63s31.82-41.56,36.44-69.4c5-30.36,9.59-69.18,9.59-69.18Z" style="fill:#263238"></path><polygon points="186.52 359.54 200.19 371.79 204.84 367.88 190.41 354.01 186.52 359.54" style="fill:#CFD8DC"></polygon><polygon points="186.52 359.54 200.19 371.79 204.84 367.88 190.41 354.01 186.52 359.54" style="fill:#fff;opacity:0.4"></polygon><path d="M296.06,155.07s5,28.31-14.63,75.22L235,220.92c1.12-7.2,12.62-41.1,12.52-76.11a124.32,124.32,0,0,1,16,1.17,173.7,173.7,0,0,1,19.76,4A88.42,88.42,0,0,1,296.06,155.07Z" style="fill:#CFD8DC"></path><path d="M287.55,183.4c-.63,9.16-6.76,16.3-13.59,15.84a10.24,10.24,0,0,1-6.07-2.65l1.94-3.78a7.43,7.43,0,0,0,4.44,1.94c5,.34,9.48-4.88,9.93-11.58Z" style="fill:#263238;opacity:0.2"></path><path d="M287.55,183.4l-3.35-.23a15.59,15.59,0,0,0-.51-5.21,12.25,12.25,0,0,0-2.11-4.35l2.39-3.3a17.06,17.06,0,0,1,2.89,6A22,22,0,0,1,287.55,183.4Z" style="fill:#fff;opacity:0.5"></path><path d="M284,170.31l-2.39,3.3A8.79,8.79,0,0,0,279,171.3a7.34,7.34,0,0,0-3.07-1l.31-4.49a9.73,9.73,0,0,1,4.19,1.31A12.24,12.24,0,0,1,284,170.31Z" style="fill:#263238;opacity:0.4"></path><path d="M276.23,165.85l-.31,4.49c-5-.34-9.47,4.89-9.92,11.59-.3,4.35,1.16,8.51,3.83,10.88l-1.94,3.78c-3.65-3.25-5.65-8.93-5.24-14.89C263.27,172.54,269.4,165.39,276.23,165.85Z" style="fill:#fff;opacity:0.2"></path><path d="M246.06,167.77c-.43,3.52-.93,7-1.47,10.31,3.88-1.8,9.18-11.33,8.61-16.58Z" style="opacity:0.2"></path><path d="M269.86,124.13c0,6.61-1.14,18.51-6.44,21.85,0,0,1.79,7.35,15.47,12.35,6.71-3,4.29-8.36,4.29-8.36-6.75-3.13-5.51-8.35-3.27-13Z" style="fill:#ff8b7b"></path><path d="M274,129.35l5.94,7.57a21.39,21.39,0,0,0-1.32,3.39c-2.62-.94-5.75-4.66-5.46-7.56A9.51,9.51,0,0,1,274,129.35Z" style="opacity:0.2"></path><path d="M289.43,122.21c1.24-3,1.42-6.44-1-8.73.15-2,1.63-4.27,3.68-6.06C295.06,105.79,301,117.14,289.43,122.21Z" style="fill:#263238"></path><path d="M292.9,112.5a1,1,0,0,1,0-2h0c.2,0,4.76-.26,6.23-5.6a1,1,0,1,1,1.93.53,9.14,9.14,0,0,1-8.09,7.07Z" style="fill:#263238"></path><path d="M271,114.41c-1.21,8.71-2.36,13.75,1.1,19.05,5.2,8,16.62,6.16,20.4-2,3.41-7.36,4.81-20.37-2.92-25.5A12,12,0,0,0,271,114.41Z" style="fill:#ff8b7b"></path><path d="M270.75,122.13a16.57,16.57,0,0,1,3,.36,1.63,1.63,0,0,0,2-1.71c-.16-2.13.42-4.3,2.37-5.24A6.58,6.58,0,0,0,277,111a1,1,0,0,1,1.16-1.37c4.34,1.68,10.89,4.32,14.18,2.61,4.27-2.22,9.16-10.14,2.71-10.69-3.09-.25-2.74-2-5.07-3.6s-8-1.39-12.33.75-11-1.83-13.54,1.33c-1.89,2.31-.71,5.59-.71,5.59s-3.71.5-4.34,7.5c-.47,5.24,7.93,15.16,10.55,16.22C271.13,123.92,270.75,122.13,270.75,122.13Z" style="fill:#263238"></path><path d="M264.63,108.1a1,1,0,0,1-.94-.67,2.75,2.75,0,0,0-3.82-1.61,1,1,0,0,1-.65-1.89,5,5,0,0,1,3.94.09,5.22,5.22,0,0,1,2.42,2.76,1,1,0,0,1-.62,1.27A1,1,0,0,1,264.63,108.1Z" style="fill:#263238"></path><path d="M283.61,119.45c-.14.7.11,1.34.57,1.43s.95-.4,1.09-1.1-.12-1.34-.58-1.43S283.75,118.75,283.61,119.45Z" style="fill:#263238"></path><path d="M291.53,121.05c-.14.7.12,1.34.57,1.43s.95-.4,1.09-1.1-.12-1.34-.57-1.44S291.67,120.34,291.53,121.05Z" style="fill:#263238"></path><path d="M288.94,120.89a25.71,25.71,0,0,0,2.14,6.67c-1.47.9-3.47,0-3.47,0Z" style="fill:#ff5652"></path><path d="M285.18,129h0a6,6,0,0,1-4.39-3.34.21.21,0,0,1,.11-.27.22.22,0,0,1,.28.12,5.69,5.69,0,0,0,4.09,3.08.21.21,0,0,1,.16.25A.21.21,0,0,1,285.18,129Z" style="fill:#263238"></path><path d="M285.43,115.43a.38.38,0,0,1,.15.23.42.42,0,0,1-.29.51,4.18,4.18,0,0,1-3.77-.7.42.42,0,1,1,.56-.63h0a3.29,3.29,0,0,0,3,.52A.47.47,0,0,1,285.43,115.43Z" style="fill:#263238"></path><path d="M296,117.37a.4.4,0,0,1-.39-.24,3.37,3.37,0,0,0-2.35-1.92.42.42,0,0,1-.36-.47.43.43,0,0,1,.48-.36,4.19,4.19,0,0,1,3,2.39.42.42,0,0,1-.2.56A.38.38,0,0,1,296,117.37Z" style="fill:#263238"></path><path d="M254.49,160.26c-2.08,2.17-4.33,4.5-6.44,6.81s-4.27,4.65-6.33,7a175.18,175.18,0,0,0-11.6,14.52l-1.26,1.83a6.89,6.89,0,0,0-.67,1.16,10.75,10.75,0,0,0-.84,3,24.11,24.11,0,0,0,.48,7.8,74.74,74.74,0,0,0,6.13,17l-5.57,3.88c-1.2-1.39-2.21-2.69-3.22-4.1s-2-2.83-2.84-4.32a53.7,53.7,0,0,1-4.58-9.56,32.47,32.47,0,0,1-2-11.39,21.71,21.71,0,0,1,1.08-6.52,19.54,19.54,0,0,1,1.43-3.22l1.33-2.3c.87-1.51,1.8-2.92,2.72-4.37s1.91-2.82,2.91-4.18c1.95-2.77,4-5.4,6.14-8s4.3-5.11,6.55-7.57,4.49-4.85,7-7.25Z" style="fill:#ff8b7b"></path><path d="M247.47,144.81c-8.47.31-21.08,23.68-21.08,23.68,1.66,4,8.91,10.32,12.76,11.35,0,0,10.07-6.41,15.55-15.89C260.44,154,256.54,144.48,247.47,144.81Z" style="fill:#CFD8DC"></path><path d="M231.75,217.48l9.36,1.75-7.47,8.44s-6.4-2.83-6.41-6.29Z" style="fill:#ff8b7b"></path><path d="M243.78,228.1l-1.91,2a3.72,3.72,0,0,1-5.05.26l-3.18-2.65,7.47-8.44,3,4.06A3.73,3.73,0,0,1,243.78,228.1Z" style="fill:#ff8b7b"></path><path d="M266,120.45a8.33,8.33,0,0,0,2.35,5.94c2.05,2.1,4.54.61,5.18-2.09.59-2.43.22-6.45-2.43-7.53S266.1,117.74,266,120.45Z" style="fill:#ff8b7b"></path></g><g id="freepik--Data--inject-57"><rect x="72.48" y="330.48" width="23.8" height="35.41" rx="4.26" style="fill:#CFD8DC"></rect><rect x="100.09" y="311.63" width="23.8" height="54.25" rx="4.26" style="fill:#CFD8DC"></rect><rect x="127.69" y="319.81" width="23.8" height="46.08" rx="4.26" style="fill:#CFD8DC"></rect><rect x="155.29" y="308.14" width="23.8" height="57.75" rx="4.26" style="fill:#CFD8DC"></rect><rect x="182.89" y="295.81" width="23.8" height="70.08" rx="4.26" style="fill:#CFD8DC"></rect><rect x="210.5" y="282.81" width="23.8" height="83.08" rx="4.26" style="fill:#CFD8DC"></rect><rect x="238.1" y="302.48" width="23.8" height="63.41" rx="4.26" style="fill:#CFD8DC"></rect><rect x="265.7" y="277.14" width="23.8" height="88.75" rx="4.26" style="fill:#CFD8DC"></rect><rect x="293.3" y="269.48" width="23.8" height="96.41" rx="4.26" style="fill:#CFD8DC"></rect><rect x="320.91" y="274.14" width="23.8" height="91.75" rx="4.26" style="fill:#CFD8DC"></rect><rect x="348.51" y="246.86" width="23.8" height="119.03" rx="4.26" style="fill:#CFD8DC"></rect><rect x="376.11" y="258.19" width="23.8" height="107.7" rx="4.26" style="fill:#CFD8DC"></rect><rect x="403.71" y="230.58" width="23.8" height="135.31" rx="4.26" style="fill:#CFD8DC"></rect><path d="M84.39,346.25A.52.52,0,0,1,84,346a.51.51,0,0,1,.11-.7l1.21-.88a.51.51,0,0,1,.7.11.49.49,0,0,1-.11.7l-1.21.88A.53.53,0,0,1,84.39,346.25Z" style="fill:#263238"></path><path d="M89.66,342.41a.49.49,0,0,1-.41-.21.51.51,0,0,1,.11-.7l2.44-1.77a.5.5,0,1,1,.59.81L90,342.31A.46.46,0,0,1,89.66,342.41Zm6.49-4.73a.49.49,0,0,1-.4-.21.5.5,0,0,1,.11-.69L98.3,335a.5.5,0,0,1,.69.11.49.49,0,0,1-.11.7l-2.43,1.77A.47.47,0,0,1,96.15,337.68Zm6.5-4.73a.53.53,0,0,1-.41-.2.51.51,0,0,1,.11-.7l2.44-1.78a.5.5,0,1,1,.59.81l-2.44,1.78A.52.52,0,0,1,102.65,333Zm6.49-4.73a.5.5,0,0,1-.29-.9l2.44-1.77a.49.49,0,1,1,.58.8l-2.43,1.78A.53.53,0,0,1,109.14,328.22Zm6.5-4.72a.52.52,0,0,1-.41-.21.5.5,0,0,1,.12-.7l2.43-1.77a.5.5,0,1,1,.59.81l-2.44,1.77A.53.53,0,0,1,115.64,323.5Zm6.5-4.73a.49.49,0,0,1-.41-.21.51.51,0,0,1,.11-.7l2.44-1.77a.5.5,0,0,1,.69.11.49.49,0,0,1-.11.7l-2.43,1.77A.46.46,0,0,1,122.14,318.77Zm6.49-4.73a.48.48,0,0,1-.4-.21.49.49,0,0,1,.11-.7l2.43-1.77a.5.5,0,0,1,.59.81l-2.44,1.77A.45.45,0,0,1,128.63,314Zm6.5-4.73a.5.5,0,0,1-.3-.9l2.44-1.78a.5.5,0,0,1,.59.81l-2.44,1.77A.46.46,0,0,1,135.13,309.31Zm6.49-4.73a.5.5,0,0,1-.29-.9l2.43-1.77a.49.49,0,0,1,.7.11.5.5,0,0,1-.11.69l-2.44,1.78A.5.5,0,0,1,141.62,304.58Zm6.5-4.73a.5.5,0,0,1-.3-.9l2.44-1.77a.49.49,0,0,1,.7.11.51.51,0,0,1-.11.7l-2.44,1.77A.52.52,0,0,1,148.12,299.85Zm6.49-4.72a.5.5,0,0,1-.4-.21.49.49,0,0,1,.11-.7l2.43-1.77a.5.5,0,0,1,.7.11.51.51,0,0,1-.11.7L154.91,295A.57.57,0,0,1,154.61,295.13Zm6.5-4.73a.49.49,0,0,1-.41-.21.51.51,0,0,1,.11-.7l2.44-1.77a.5.5,0,0,1,.59.81l-2.44,1.77A.46.46,0,0,1,161.11,290.4Zm6.49-4.73a.49.49,0,0,1-.4-.21.48.48,0,0,1,.11-.69l2.43-1.78a.5.5,0,0,1,.59.81l-2.43,1.77A.49.49,0,0,1,167.6,285.67Zm6.5-4.73a.51.51,0,0,1-.41-.2.51.51,0,0,1,.11-.7l2.44-1.78a.5.5,0,0,1,.59.81l-2.44,1.78A.52.52,0,0,1,174.1,280.94Zm6.49-4.73a.51.51,0,0,1-.4-.2.5.5,0,0,1,.11-.7l2.43-1.77a.5.5,0,1,1,.59.8l-2.43,1.78A.55.55,0,0,1,180.59,276.21Zm6.5-4.72a.52.52,0,0,1-.41-.21.51.51,0,0,1,.11-.7l2.44-1.77a.5.5,0,0,1,.7.11.51.51,0,0,1-.11.7l-2.44,1.77A.53.53,0,0,1,187.09,271.49Z" style="fill:#263238"></path><path d="M193.58,266.76a.52.52,0,0,1-.4-.21.5.5,0,0,1,.11-.7l1.21-.88a.49.49,0,0,1,.42-.08l1.45.37a.5.5,0,1,1-.25,1l-1.22-.31-1,.74A.54.54,0,0,1,193.58,266.76Z" style="fill:#263238"></path><path d="M305.16,294.36h-.08l-2.84-.73a.5.5,0,1,1,.25-1l2.76.71a.5.5,0,0,1,.42.24.46.46,0,0,1-.15.66A.84.84,0,0,1,305.16,294.36Zm-7.66-2-.13,0-2.92-.75a.5.5,0,1,1,.25-1l2.92.75a.5.5,0,0,1-.12,1Zm12.14-.55a.49.49,0,0,1-.44-.26.51.51,0,0,1,.19-.68l2.61-1.5a.51.51,0,0,1,.69.19.5.5,0,0,1-.19.68l-2.61,1.5A.59.59,0,0,1,309.64,291.83Zm-19.93-1.46-.13,0-2.92-.75a.5.5,0,1,1,.25-1l2.92.75a.5.5,0,0,1-.12,1Zm-7.79-2-.13,0-2.92-.75a.51.51,0,0,1-.36-.61.5.5,0,0,1,.61-.36l2.92.75a.5.5,0,0,1-.12,1Zm34.7-.53a.49.49,0,0,1-.44-.26.5.5,0,0,1,.19-.68l2.61-1.5a.5.5,0,0,1,.69.19.51.51,0,0,1-.19.68l-2.62,1.5A.51.51,0,0,1,316.62,287.83Zm-42.49-1.48-.12,0-2.92-.75a.5.5,0,0,1-.36-.61.49.49,0,0,1,.61-.36l2.92.75a.5.5,0,0,1-.13,1Zm-7.79-2-.12,0-2.92-.75a.5.5,0,1,1,.25-1l2.92.75a.5.5,0,0,1-.13,1Zm57.25-.51a.49.49,0,0,1-.43-.26.5.5,0,0,1,.18-.68l2.62-1.5a.49.49,0,0,1,.68.19.49.49,0,0,1-.18.68l-2.62,1.5A.55.55,0,0,1,323.59,283.83Zm-65-1.5-.12,0-2.92-.75a.5.5,0,0,1,.25-1l2.92.75a.5.5,0,0,1-.13,1Zm-7.78-2-.13,0-2.92-.75a.5.5,0,0,1,.25-1l2.92.75a.5.5,0,0,1-.12,1Zm79.8-.49a.49.49,0,0,1-.43-.26.49.49,0,0,1,.18-.68l2.62-1.5a.49.49,0,0,1,.68.19.49.49,0,0,1-.18.68l-2.62,1.5A.55.55,0,0,1,330.57,279.83ZM243,278.31l-.13,0-2.92-.75a.5.5,0,1,1,.25-1l2.92.75a.5.5,0,0,1-.12,1Zm-7.79-2-.13,0-2.92-.75a.51.51,0,0,1-.36-.61.5.5,0,0,1,.61-.36l2.92.75a.5.5,0,0,1-.12,1Zm102.36-.47a.49.49,0,0,1-.43-.26.49.49,0,0,1,.18-.68l2.62-1.5a.49.49,0,0,1,.68.19.49.49,0,0,1-.18.68l-2.62,1.5A.55.55,0,0,1,337.55,275.83ZM227.4,274.29l-.12,0-2.93-.75a.5.5,0,0,1-.35-.61.49.49,0,0,1,.6-.36l2.93.75a.5.5,0,0,1-.13,1Zm-7.79-2-.12,0-2.92-.75a.5.5,0,0,1,.25-1l2.92.75a.5.5,0,0,1-.13,1Zm124.92-.45a.49.49,0,0,1-.43-.26.49.49,0,0,1,.18-.68l2.62-1.5a.5.5,0,1,1,.49.87l-2.61,1.5A.59.59,0,0,1,344.53,271.83Zm-132.71-1.56-.12,0-2.92-.75a.5.5,0,1,1,.25-1l2.92.75a.5.5,0,0,1-.13,1Zm-7.78-2-.13,0-2.92-.75a.5.5,0,1,1,.25-1l2.92.75a.5.5,0,0,1-.12,1Zm147.47-.43a.49.49,0,0,1-.44-.26.51.51,0,0,1,.19-.68l2.62-1.5a.49.49,0,0,1,.68.19.5.5,0,0,1-.19.68l-2.61,1.5A.59.59,0,0,1,351.51,267.83Zm7-4a.49.49,0,0,1-.44-.26.5.5,0,0,1,.19-.68l2.61-1.5a.5.5,0,1,1,.5.87l-2.62,1.5A.51.51,0,0,1,358.49,263.83Zm7-4a.49.49,0,0,1-.43-.26.5.5,0,0,1,.18-.68l2.62-1.5a.49.49,0,0,1,.68.19.49.49,0,0,1-.18.68l-2.62,1.5A.55.55,0,0,1,365.46,259.83Zm7-4a.49.49,0,0,1-.43-.26.49.49,0,0,1,.18-.68l2.62-1.5a.49.49,0,0,1,.68.19.49.49,0,0,1-.18.68l-2.62,1.5A.55.55,0,0,1,372.44,255.83Zm7-4a.49.49,0,0,1-.43-.26.49.49,0,0,1,.18-.68l2.62-1.5a.5.5,0,0,1,.5.87l-2.62,1.5A.55.55,0,0,1,379.42,251.83Zm7-4a.49.49,0,0,1-.43-.26.49.49,0,0,1,.18-.68l2.62-1.5a.5.5,0,1,1,.49.87l-2.61,1.5A.59.59,0,0,1,386.4,247.83Zm7-4a.5.5,0,0,1-.44-.26.51.51,0,0,1,.19-.68l2.62-1.5a.49.49,0,0,1,.68.19.5.5,0,0,1-.19.68l-2.61,1.5A.59.59,0,0,1,393.38,243.83Zm7-4a.49.49,0,0,1-.44-.26.5.5,0,0,1,.19-.68l2.61-1.5a.5.5,0,0,1,.69.19.51.51,0,0,1-.19.68l-2.62,1.5A.51.51,0,0,1,400.36,239.83Zm7-4a.49.49,0,0,1-.43-.26.5.5,0,0,1,.19-.68l2.61-1.5a.49.49,0,0,1,.68.19.49.49,0,0,1-.18.68l-2.62,1.5A.55.55,0,0,1,407.33,235.83Z" style="fill:#263238"></path><path d="M414.31,231.83a.49.49,0,0,1-.43-.26.49.49,0,0,1,.18-.68l1.31-.74a.49.49,0,1,1,.49.86l-1.3.75A.55.55,0,0,1,414.31,231.83Z" style="fill:#263238"></path><path d="M88.49,345.75a4.11,4.11,0,1,1-4.1-4.11A4.11,4.11,0,0,1,88.49,345.75Z" style="fill:#fff"></path><path d="M84.39,350.35a4.61,4.61,0,1,1,4.6-4.6A4.62,4.62,0,0,1,84.39,350.35Zm0-8.21a3.61,3.61,0,1,0,3.6,3.61A3.61,3.61,0,0,0,84.39,342.14Z" style="fill:#263238"></path><circle cx="194.8" cy="265.37" r="4.1" style="fill:#fff"></circle><path d="M194.8,270a4.61,4.61,0,1,1,4.6-4.61A4.62,4.62,0,0,1,194.8,270Zm0-8.21a3.61,3.61,0,1,0,3.6,3.6A3.61,3.61,0,0,0,194.8,261.77Z" style="fill:#263238"></path><circle cx="305.2" cy="293.87" r="4.1" style="fill:#fff"></circle><path d="M305.21,298.47a4.61,4.61,0,1,1,4.6-4.6A4.62,4.62,0,0,1,305.21,298.47Zm0-8.21a3.61,3.61,0,1,0,3.6,3.61A3.61,3.61,0,0,0,305.21,290.26Z" style="fill:#263238"></path><circle cx="415.61" cy="230.58" r="4.1" style="fill:#fff"></circle><path d="M415.61,235.18a4.6,4.6,0,1,1,4.61-4.6A4.61,4.61,0,0,1,415.61,235.18Zm0-8.2a3.6,3.6,0,1,0,3.61,3.6A3.6,3.6,0,0,0,415.61,227Z" style="fill:#263238"></path></g></svg>